<?xml version="1.0" standalone="no"?>
<!DOCTYPE svg PUBLIC "-//W3C//DTD SVG 20010904//EN"
 "http://www.w3.org/TR/2001/REC-SVG-20010904/DTD/svg10.dtd">
<svg version="1.0" xmlns="http://www.w3.org/2000/svg"
 width="500.000000pt" height="500.000000pt" viewBox="0 0 500.000000 500.000000"
 preserveAspectRatio="xMidYMid meet">

<g transform="translate(0.000000,500.000000) scale(0.100000,-0.100000)"
fill="#000000" stroke="none">
<path d="M2107 2733 c-4 -3 -7 -111 -7 -240 l0 -233 670 0 670 0 0 240 0 240
-663 0 c-365 0 -667 -3 -670 -7z m141 -171 l3 -42 54 0 54 0 3 42 c2 23 9 43
16 46 9 3 12 -22 12 -102 0 -88 -3 -106 -15 -106 -11 0 -15 12 -15 45 l0 45
-55 0 -55 0 0 -45 c0 -38 -3 -45 -20 -45 -19 0 -20 7 -20 98 0 54 3 102 7 106
15 15 28 -3 31 -42z m292 -57 c0 -87 -3 -105 -15 -105 -12 0 -15 18 -15 105 0
87 3 105 15 105 12 0 15 -18 15 -105z m261 79 c25 -22 24 -72 -1 -99 l-20 -22
20 -25 c24 -31 25 -38 6 -38 -8 0 -24 14 -36 30 -15 22 -30 30 -51 30 -26 0
-29 -3 -29 -30 0 -23 -4 -30 -20 -30 -19 0 -20 7 -20 98 0 54 3 102 8 106 13
14 122 -1 143 -20z m269 11 c0 -12 -13 -15 -60 -15 -60 0 -60 0 -60 -29 0 -29
2 -30 52 -33 74 -4 77 -28 4 -28 -56 0 -56 0 -56 -30 l0 -30 60 0 c47 0 60 -3
60 -15 0 -12 -15 -15 -75 -15 l-75 0 0 98 c0 54 3 102 7 105 3 4 37 7 75 7 54
0 68 -3 68 -15z m271 -21 c38 -37 41 -99 5 -141 -21 -25 -31 -28 -100 -31
l-76 -4 0 99 c0 55 3 103 8 107 4 5 35 6 70 3 52 -4 69 -10 93 -33z"/>
<path d="M2690 2535 l0 -45 38 0 c43 0 62 14 62 47 0 26 -27 43 -69 43 -30 0
-31 -1 -31 -45z"/>
<path d="M3210 2505 l0 -75 45 0 c56 0 85 25 85 74 0 45 -37 76 -91 76 l-39 0
0 -75z"/>
<path d="M1333 2598 c-47 -22 -41 -79 10 -98 71 -26 77 -30 77 -50 0 -25 -39
-36 -81 -21 -38 13 -52 5 -25 -15 46 -33 136 -6 136 41 0 27 -24 46 -83 65
-31 10 -38 16 -35 33 3 19 9 22 56 22 56 -1 67 10 26 25 -31 12 -53 12 -81 -2z"/>
<path d="M1550 2500 c0 -82 3 -100 15 -100 11 0 15 12 15 45 l0 45 60 0 60 0
0 -45 c0 -33 4 -45 15 -45 12 0 15 18 15 100 0 82 -3 100 -15 100 -11 0 -15
-11 -15 -40 l0 -40 -60 0 -60 0 0 40 c0 29 -4 40 -15 40 -12 0 -15 -18 -15
-100z"/>
<path d="M1840 2500 l0 -100 75 0 c60 0 75 3 75 15 0 12 -13 15 -60 15 -60 0
-60 0 -60 29 0 29 2 30 53 33 28 2 52 8 52 13 0 6 -24 11 -52 13 -51 3 -53 4
-53 33 0 29 0 29 60 29 33 0 60 4 60 10 0 6 -32 10 -75 10 l-75 0 0 -100z"/>
</g>
</svg>
